<?xml version="1.0" encoding="UTF-8"?>
<svg width="192px" height="43px" viewBox="0 0 192 43" xmlns="http://www.w3.org/2000/svg" xmlns:xlink="http://www.w3.org/1999/xlink" version="1.1">
 <!-- Generated by Pixelmator Pro 2.1.4 -->
 <path id="Путь" d="M152.88 35.68 L152.88 18.53 C152.88 16.83 153.32 10.16 158.41 10.2 L158.41 9.72 147.24 9.72 147.24 10.2 C151.81 10.16 152.4 16.84 152.4 18.53 L152.4 27.93 138.68 9.71 128.28 9.71 128.28 10.19 C129.24 10.26 130.49 10.04 132.78 12.96 L134.37 15.1 134.37 26.83 C134.37 28.3 134.04 35.2 128.69 35.2 L128.69 35.68 140.16 35.68 140.16 35.2 C134.92 35.2 134.85 28.31 134.85 26.83 L134.85 15.66 149.86 35.68 Z" fill="#000000" fill-opacity="1" stroke="none"/>
 <path id="Путь-1" d="M131.14 35.24 C130.29 35.17 129.22 35.31 127.93 32.36 127.93 32.36 127.45 31.25 118.27 9.72 L117.86 9.72 110.93 27.53 110.8 27.84 C110.87 27.97 110.93 28.09 110.98 28.21 111 28.26 111.09 28.24 111.17 28.23 L111.22 28.01 114.87 18.46 C116.66 22.68 118.42 26.91 120.25 31.11 120.25 31.11 122.23 35.07 119.58 35.23 119.53 35.23 116.93 35.23 116.15 35.24 116.32 35.39 116.47 35.54 116.61 35.68 L119.6 35.68 131.14 35.68 Z" fill="#000000" fill-opacity="1" stroke="none"/>
 <path id="Путь-2" d="M68.46 24.59 L69.12 24.59 C72.01 24.59 73.87 24.45 76.1 23.89 82.78 22.2 83.17 12.41 76.21 10.44 74.22 9.88 72 9.74 69.12 9.74 L59.79 9.74 59.79 10.22 C61.41 10.22 62.08 11.62 62.08 13.91 L62.08 31.42 C62.08 33.93 61.56 35.22 60.02 35.22 L60.02 35.7 72.15 35.7 72.15 35.22 C70.31 35.22 68.46 35.11 68.46 30.65 Z M68.46 24.11 L68.46 10.21 69.12 10.21 C71.97 10.21 73.79 10.19 74.7 12.2 75.64 14.27 75.66 20.09 74.71 22.15 73.84 24.06 72.07 24.1 69.12 24.1 L68.46 24.1 Z" fill="#000000" fill-opacity="1" stroke="none"/>
 <path id="Путь-3" d="M57.4 22.89 C57.4 15.59 52.42 9.39 44.31 9.39 36.2 9.39 31.22 15.58 31.22 22.89 31.22 30.23 36.2 36.02 44.31 36.02 52.42 36.02 57.4 30.23 57.4 22.89 Z M49.22 22.89 C49.22 33.03 48.25 35.54 44.31 35.54 40.33 35.54 39.33 33.03 39.33 22.89 39.33 12.79 40.33 9.87 44.31 9.87 48.25 9.87 49.22 12.79 49.22 22.89 Z" fill="#000000" fill-opacity="1" stroke="none"/>
 <path id="Путь-4" d="M26.46 32.99 C29.23 28.97 27.57 24.62 22.7 21.41 L17.02 17.65 C12.23 14.52 13.52 9.87 17.5 9.87 23.4 9.87 25.39 15.03 26.13 17.32 L26.61 17.32 26.61 11.13 C26.61 11.13 23.81 9.4 17.5 9.4 11.56 9.4 9.65 12.2 9.65 12.2 6.55 16.18 8.18 20.28 13.41 23.56 L19.09 27.14 C23.55 30.42 22.37 35.55 18.43 35.55 12.27 35.55 9.62 29.24 8.92 26.89 L8.44 26.89 8.44 33.97 C8.44 33.97 11.28 36.03 18.43 36.03 24.58 36.02 26.46 32.99 26.46 32.99 Z" fill="#000000" fill-opacity="1" stroke="none"/>
 <path id="Путь-5" d="M183.99 22.89 C183.99 15.59 179.01 9.39 170.9 9.39 162.79 9.39 157.81 15.58 157.81 22.89 157.81 30.23 162.79 36.02 170.9 36.02 179.02 36.02 183.99 30.23 183.99 22.89 Z M175.81 22.89 C175.81 33.03 174.84 35.54 170.9 35.54 166.92 35.54 165.92 33.03 165.92 22.89 165.92 12.79 166.92 9.87 170.9 9.87 174.84 9.87 175.81 12.79 175.81 22.89 Z" fill="#000000" fill-opacity="1" stroke="none"/>
 <path id="Путь-6" d="M111.74 35.21 C110.51 35.2 109.2 35.3 107.89 34.22 107.12 33.58 106.38 32.61 106.01 31.23 104.24 24.59 101.66 23.34 98.34 23.45 99.4 23.38 100.45 23.23 101.43 22.96 106.61 20.99 106.41 12.27 100.96 10.47 98.75 9.88 96.01 9.74 93.03 9.74 L83.22 9.74 83.22 10.22 C84.84 10.22 85.51 11.22 85.51 13.5 L85.51 31.38 C85.51 34.51 84.81 35.21 83.22 35.21 L83.22 35.69 94.1 35.69 94.1 35.21 C92.55 35.21 91.89 34.44 91.89 31.38 L91.89 23.78 93.62 23.78 C93.62 23.78 97.53 23.67 98.38 27.43 100.08 34.84 100.04 35.69 104.65 35.69 L109.05 35.69 111.74 35.69 Z M98.38 21.29 C97.58 23.31 95.88 23.29 93.04 23.29 L91.9 23.29 91.9 10.2 93.04 10.2 C95.64 10.2 97.37 10.14 98.25 12 99.16 13.95 99.17 19.29 98.38 21.29 Z" fill="#000000" fill-opacity="1" stroke="none"/>
</svg>
